<svg width="50" height="48" viewBox="0 0 50 48" fill="none" xmlns="http://www.w3.org/2000/svg">
<path d="M9.76269 8.24622C9.57517 7.03419 10.5127 5.94043 11.7392 5.94043H46.6793C48.1862 5.94043 49.1518 7.5437 48.4472 8.87568L41.3969 22.2024C41.0504 22.8574 40.3701 23.2672 39.629 23.2672H13.801C12.8145 23.2672 11.9754 22.5479 11.8246 21.573L9.76269 8.24622Z" fill="#151515"/>
<path d="M0 2C0 0.89543 0.89543 0 2 0H10.8108C11.4795 0 12.104 0.334202 12.4749 0.8906L13.7687 2.8312C14.6547 4.1603 13.7019 5.94059 12.1045 5.94059H2C0.895431 5.94059 0 5.04516 0 3.94059V2Z" fill="#151515"/>
<path d="M12.3937 24.3422C12.6841 23.6887 13.3321 23.2676 14.0472 23.2676C15.3567 23.2676 16.2326 24.6154 15.7008 25.812L13.3489 31.1039C13.0585 31.7573 12.4104 32.1785 11.6953 32.1785C10.3858 32.1785 9.50992 30.8306 10.0418 29.634L12.3937 24.3422Z" fill="#151515"/>
<rect x="9.40594" y="32.1782" width="40.099" height="3.46535" rx="1.73267" fill="#151515"/>
<circle cx="17.8218" cy="42.574" r="4.9505" fill="#151515"/>
<circle cx="37.6238" cy="42.574" r="4.9505" fill="#151515"/>
</svg>
