<svg width="74" height="72" viewBox="0 0 74 72" fill="none" xmlns="http://www.w3.org/2000/svg">
<rect width="74" height="72" rx="10" fill="#151515"/>
<path d="M8.5082 52.4H12.1082C13.0082 52.4 13.4582 51.95 13.4582 51.05V21.35C13.4582 20.8833 13.3415 20.55 13.1082 20.35C12.9082 20.1167 12.5749 20 12.1082 20H8.5082V18.4H23.8082V20H19.4082C18.9415 20 18.5915 20.1167 18.3582 20.35C18.1582 20.55 18.0582 20.8833 18.0582 21.35V51.05C18.0582 51.95 18.5082 52.4 19.4082 52.4H24.4582C26.2249 52.4 27.8082 52 29.2082 51.2C30.6082 50.4 31.6582 49.2333 32.3582 47.7C32.8915 46.5667 33.3249 45.3667 33.6582 44.1C34.0249 42.8 34.2915 41.7 34.4582 40.8C34.6249 39.9 34.7249 39.3333 34.7582 39.1H36.0082L35.5582 54H8.5082V52.4ZM39.4004 32.1C40.6337 31.1667 41.6337 30.0333 42.4004 28.7C43.2004 27.3667 43.6004 26.0333 43.6004 24.7C43.6004 24.3333 43.5337 24.05 43.4004 23.85C43.2671 23.6167 43.0337 23.4 42.7004 23.2C42.4671 23.0667 41.9004 23 41.0004 23C40.2671 23 39.6671 22.75 39.2004 22.25C38.7337 21.7167 38.5004 21.1 38.5004 20.4C38.5004 19.5 38.8004 18.8 39.4004 18.3C40.0004 17.7667 40.6671 17.5 41.4004 17.5C42.7004 17.5 43.7171 18.0333 44.4504 19.1C45.0837 19.9667 45.4004 21.15 45.4004 22.65C45.4004 24.7167 44.8837 26.6833 43.8504 28.55C42.8171 30.3833 41.5671 31.8333 40.1004 32.9L39.4004 32.1ZM52.0141 52.4H55.6141C56.5141 52.4 56.9641 51.95 56.9641 51.05V21.35C56.9641 20.8833 56.8474 20.55 56.6141 20.35C56.4141 20.1167 56.0807 20 55.6141 20H52.0141V18.4H66.5141V20H62.9141C62.4474 20 62.0974 20.1167 61.8641 20.35C61.6641 20.55 61.5641 20.8833 61.5641 21.35V51.05C61.5641 51.95 62.0141 52.4 62.9141 52.4H66.5141V54H52.0141V52.4Z" fill="#F9E6D6"/>
</svg>
