<svg width="100" height="132" viewBox="0 0 100 132" fill="none" xmlns="http://www.w3.org/2000/svg">
<rect width="100" height="110" rx="10" fill="#151515"/>
<path d="M18.4162 104.76H23.4562C24.7162 104.76 25.3462 104.13 25.3462 102.87V61.29C25.3462 60.6367 25.1828 60.17 24.8562 59.89C24.5762 59.5633 24.1095 59.4 23.4562 59.4H18.4162V57.16H39.8362V59.4H33.6762C33.0228 59.4 32.5328 59.5633 32.2062 59.89C31.9262 60.17 31.7862 60.6367 31.7862 61.29V102.87C31.7862 104.13 32.4162 104.76 33.6762 104.76H40.7462C43.2195 104.76 45.4362 104.2 47.3962 103.08C49.3562 101.96 50.8262 100.327 51.8062 98.18C52.5528 96.5933 53.1595 94.9133 53.6262 93.14C54.1395 91.32 54.5128 89.78 54.7462 88.52C54.9795 87.26 55.1195 86.4667 55.1662 86.14H56.9162L56.2862 107H18.4162V104.76ZM64.5707 89.48C65.5574 88.7333 66.3574 87.8267 66.9707 86.76C67.6107 85.6933 67.9307 84.6267 67.9307 83.56C67.9307 83.2667 67.8774 83.04 67.7707 82.88C67.664 82.6933 67.4774 82.52 67.2107 82.36C67.024 82.2533 66.5707 82.2 65.8507 82.2C65.264 82.2 64.784 82 64.4107 81.6C64.0374 81.1733 63.8507 80.68 63.8507 80.12C63.8507 79.4 64.0907 78.84 64.5707 78.44C65.0507 78.0133 65.584 77.8 66.1707 77.8C67.2107 77.8 68.024 78.2267 68.6107 79.08C69.1174 79.7733 69.3707 80.72 69.3707 81.92C69.3707 83.5733 68.9574 85.1467 68.1307 86.64C67.304 88.1067 66.304 89.2667 65.1307 90.12L64.5707 89.48ZM74.6616 105.72H77.5416C78.2616 105.72 78.6216 105.36 78.6216 104.64V80.88C78.6216 80.5067 78.5283 80.24 78.3416 80.08C78.1816 79.8933 77.915 79.8 77.5416 79.8H74.6616V78.52H86.2616V79.8H83.3816C83.0083 79.8 82.7283 79.8933 82.5416 80.08C82.3816 80.24 82.3016 80.5067 82.3016 80.88V104.64C82.3016 105.36 82.6616 105.72 83.3816 105.72H86.2616V107H74.6616V105.72Z" fill="#F9E6D6"/>
<path d="M18.4162 104.76H23.4562C24.7162 104.76 25.3462 104.13 25.3462 102.87V61.29C25.3462 60.6367 25.1828 60.17 24.8562 59.89C24.5762 59.5633 24.1095 59.4 23.4562 59.4H18.4162V57.16H39.8362V59.4H33.6762C33.0228 59.4 32.5328 59.5633 32.2062 59.89C31.9262 60.17 31.7862 60.6367 31.7862 61.29V102.87C31.7862 104.13 32.4162 104.76 33.6762 104.76H40.7462C43.2195 104.76 45.4362 104.2 47.3962 103.08C49.3562 101.96 50.8262 100.327 51.8062 98.18C52.5528 96.5933 53.1595 94.9133 53.6262 93.14C54.1395 91.32 54.5128 89.78 54.7462 88.52C54.9795 87.26 55.1195 86.4667 55.1662 86.14H56.9162L56.2862 107H18.4162V104.76ZM64.5707 89.48C65.5574 88.7333 66.3574 87.8267 66.9707 86.76C67.6107 85.6933 67.9307 84.6267 67.9307 83.56C67.9307 83.2667 67.8774 83.04 67.7707 82.88C67.664 82.6933 67.4774 82.52 67.2107 82.36C67.024 82.2533 66.5707 82.2 65.8507 82.2C65.264 82.2 64.784 82 64.4107 81.6C64.0374 81.1733 63.8507 80.68 63.8507 80.12C63.8507 79.4 64.0907 78.84 64.5707 78.44C65.0507 78.0133 65.584 77.8 66.1707 77.8C67.2107 77.8 68.024 78.2267 68.6107 79.08C69.1174 79.7733 69.3707 80.72 69.3707 81.92C69.3707 83.5733 68.9574 85.1467 68.1307 86.64C67.304 88.1067 66.304 89.2667 65.1307 90.12L64.5707 89.48ZM74.6616 105.72H77.5416C78.2616 105.72 78.6216 105.36 78.6216 104.64V80.88C78.6216 80.5067 78.5283 80.24 78.3416 80.08C78.1816 79.8933 77.915 79.8 77.5416 79.8H74.6616V78.52H86.2616V79.8H83.3816C83.0083 79.8 82.7283 79.8933 82.5416 80.08C82.3816 80.24 82.3016 80.5067 82.3016 80.88V104.64C82.3016 105.36 82.6616 105.72 83.3816 105.72H86.2616V107H74.6616V105.72Z" fill="#F9E6D6"/>
<path d="M28.5 32C28.5 32.518 28.2975 33.0588 27.8538 33.5944C27.4072 34.1335 26.7327 34.6457 25.8475 35.0883C24.9642 35.5299 23.9042 35.8857 22.7254 36.1298C21.5475 36.3738 20.2812 36.5 19 36.5C17.7188 36.5 16.4525 36.3738 15.2746 36.1298C14.0958 35.8857 13.0358 35.5299 12.1525 35.0883C11.2673 34.6457 10.5928 34.1335 10.1462 33.5944C9.70254 33.0588 9.5 32.518 9.5 32" stroke="#F9E6D6"/>
<path d="M28.5 40C28.5 40.518 28.2975 41.0588 27.8538 41.5944C27.4072 42.1335 26.7327 42.6457 25.8475 43.0883C24.9642 43.5299 23.9042 43.8857 22.7254 44.1298C21.5475 44.3738 20.2812 44.5 19 44.5C17.7188 44.5 16.4525 44.3738 15.2746 44.1298C14.0958 43.8857 13.0358 43.5299 12.1525 43.0883C11.2673 42.6457 10.5928 42.1335 10.1462 41.5944C9.70254 41.0588 9.5 40.518 9.5 40" stroke="#F9E6D6"/>
<path d="M28.5 40C28.5 40.518 28.2975 41.0588 27.8538 41.5944C27.4072 42.1335 26.7327 42.6457 25.8475 43.0883C24.9642 43.5299 23.9042 43.8857 22.7254 44.1298C21.5475 44.3738 20.2812 44.5 19 44.5C17.7188 44.5 16.4525 44.3738 15.2746 44.1298C14.0958 43.8857 13.0358 43.5299 12.1525 43.0883C11.2673 42.6457 10.5928 42.1335 10.1462 41.5944C9.70254 41.0588 9.5 40.518 9.5 40" stroke="#F9E6D6"/>
<path d="M32.14 29.6643C32.9795 28.4275 34.0992 27.4063 35.4078 26.6837C36.7164 25.9611 38.177 25.5575 39.671 25.5057C41.165 25.4539 42.6501 25.7554 44.0056 26.3857C45.3611 27.016 46.5487 27.9573 47.4719 29.133C48.3951 30.3088 49.0278 31.6858 49.3185 33.1521C49.6093 34.6184 49.55 36.1326 49.1453 37.5717C48.7406 39.0107 48.0021 40.334 46.9897 41.4338C45.9773 42.5337 44.7197 43.3791 43.319 43.9014" stroke="#F9E6D6"/>
<path d="M73.4246 11.4245C74.4847 10.3644 75.7806 9.57029 77.2064 9.10701C78.6323 8.64373 80.1475 8.52448 81.6282 8.75901C83.109 8.99353 84.5132 9.57518 85.726 10.4564C86.9389 11.3376 87.926 12.4933 88.6067 13.8291" stroke="#F9E6D6"/>
<path d="M84.8596 31.8596C83.7995 32.9197 82.5036 33.7139 81.0778 34.1772C79.6519 34.6405 78.1367 34.7597 76.656 34.5252C75.1752 34.2906 73.771 33.709 72.5581 32.8278C71.3453 31.9466 70.3581 30.7908 69.6775 29.455" stroke="#F9E6D6"/>
<path d="M67.4245 27.8596C66.3644 26.7995 65.5703 25.5036 65.107 24.0778C64.6437 22.6519 64.5245 21.1367 64.759 19.656C64.9935 18.1752 65.5752 16.771 66.4564 15.5581C67.3376 14.3453 68.4933 13.3581 69.8291 12.6775" stroke="#F9E6D6"/>
<path d="M89.8596 16.4246C90.9197 17.4847 91.7139 18.7806 92.1772 20.2064C92.6405 21.6323 92.7597 23.1475 92.5252 24.6282C92.2906 26.109 91.709 27.5132 90.8278 28.726C89.9466 29.9389 88.7908 30.926 87.455 31.6067" stroke="#F9E6D6"/>
<path d="M51.2768 47.4726C51.6745 46.8867 52.2049 46.403 52.8247 46.0607C53.4446 45.7184 54.1365 45.5272 54.8442 45.5027C55.5518 45.4782 56.2553 45.621 56.8974 45.9196C57.5394 46.2181 58.102 46.664 58.5393 47.2209C58.9766 47.7778 59.2763 48.4301 59.414 49.1247C59.5518 49.8192 59.5237 50.5365 59.332 51.2182C59.1403 51.8998 58.7905 52.5266 58.3109 53.0476C57.8314 53.5686 57.2356 53.969 56.5722 54.2164" stroke="#F9E6D6"/>
<path d="M49.86 50.3357C49.0205 51.5725 47.9008 52.5937 46.5922 53.3163C45.2836 54.0389 43.823 54.4425 42.329 54.4943C40.835 54.5461 39.3499 54.2446 37.9944 53.6143C36.6389 52.984 35.4513 52.0427 34.5281 50.867C33.6049 49.6912 32.9722 48.3142 32.6815 46.8479C32.3907 45.3816 32.45 43.8674 32.8547 42.4283C33.2594 40.9893 33.9979 39.666 35.0103 38.5662C36.0227 37.4663 37.2803 36.6209 38.681 36.0986" stroke="#F9E6D6"/>
<path d="M86.5 22.5C86.5 23.8149 86.1297 25.1031 85.4314 26.2173C84.7332 27.3314 83.7352 28.2264 82.5519 28.7997C81.3686 29.3729 80.0478 29.6013 78.7407 29.4587C77.4336 29.3161 76.1931 28.8082 75.1612 27.9932C74.1294 27.1782 73.348 26.0891 72.9065 24.8506C72.4649 23.612 72.3812 22.2742 72.6647 20.9903C72.9483 19.7064 73.5878 18.5283 74.5099 17.5909C75.432 16.6536 76.5995 15.9949 77.8786 15.6904" stroke="#F9E6D6"/>
<path d="M86.5 21.5C86.5 22.6144 86.2154 23.7047 85.6806 24.6501C85.146 25.5952 84.3837 26.3563 83.4823 26.8538C82.5814 27.3511 81.5745 27.5673 80.5717 27.4818C79.5688 27.3963 78.6034 27.0118 77.7825 26.3657C76.9613 25.7193 76.3163 24.8356 75.9237 23.8089C75.5311 22.782 75.4078 21.6557 75.5686 20.5555C75.7295 19.4554 76.1675 18.4287 76.8302 17.5881C77.4927 16.7479 78.3526 16.1274 79.3119 15.7898" stroke="#F9E6D6"/>
<circle cx="13.5" cy="12.5" r="2" stroke="#F9E6D6"/>
<circle cx="26.5" cy="25.5" r="2" stroke="#F9E6D6"/>
<circle cx="43.5" cy="15.5" r="2" stroke="#F9E6D6"/>
<circle cx="68.5" cy="39.5" r="2" stroke="#F9E6D6"/>
<circle cx="54.5" cy="30.5" r="2" stroke="#F9E6D6"/>
<circle cx="63.5" cy="11.5" r="2" stroke="#F9E6D6"/>
<line x1="3.32009" y1="71.6159" x2="9.32009" y2="76.6159" stroke="#F9E6D6"/>
<line x1="10.8419" y1="78.5257" x2="22.8419" y2="74.5257" stroke="#F9E6D6"/>
<line x1="33.8509" y1="73.5228" x2="49.8509" y2="68.5228" stroke="#F9E6D6"/>
<line x1="56.738" y1="73.5742" x2="69.738" y2="65.5742" stroke="#F9E6D6"/>
<line x1="51.3536" y1="68.6464" x2="55.3536" y2="72.6464" stroke="#F9E6D6"/>
<line x1="51.3536" y1="68.6464" x2="55.3536" y2="72.6464" stroke="#F9E6D6"/>
<line x1="71.0981" y1="65.5097" x2="76.0981" y2="66.5097" stroke="#F9E6D6"/>
<line x1="77.7519" y1="65.5659" x2="84.7519" y2="61.5659" stroke="#F9E6D6"/>
<line x1="85.6237" y1="63.6707" x2="92.6237" y2="55.6707" stroke="#F9E6D6"/>
<line x1="94" y1="54.5" x2="98" y2="54.5" stroke="#F9E6D6"/>
</svg>
